<svg xmlns="http://www.w3.org/2000/svg" viewBox="0 0 60 40" role="img" aria-labelledby="title">
  <title>China Flag</title>
  <rect width="60" height="40" fill="#de2910"/>
  <polygon points="11,6 12.8,10.8 18,10.8 13.8,13.9 15.4,18.8 11,15.8 6.6,18.8 8.2,13.9 4,10.8 9.2,10.8" fill="#ffde00"/>
  <polygon points="23,5 23.7,7 25.8,7 24.1,8.2 24.7,10.2 23,9 21.3,10.2 21.9,8.2 20.2,7 22.3,7" fill="#ffde00"/>
  <polygon points="27,10 27.7,12 29.8,12 28.1,13.2 28.7,15.2 27,14 25.3,15.2 25.9,13.2 24.2,12 26.3,12" fill="#ffde00"/>
  <polygon points="27,17 27.7,19 29.8,19 28.1,20.2 28.7,22.2 27,21 25.3,22.2 25.9,20.2 24.2,19 26.3,19" fill="#ffde00"/>
  <polygon points="23,22 23.7,24 25.8,24 24.1,25.2 24.7,27.2 23,26 21.3,27.2 21.9,25.2 20.2,24 22.3,24" fill="#ffde00"/>
</svg>
