<svg xmlns="http://www.w3.org/2000/svg" viewBox="0 0 60 40" role="img" aria-labelledby="title">
  <title>United States Flag</title>
  <rect width="60" height="40" fill="#ffffff"/>
  <g fill="#b22234">
    <rect y="0" width="60" height="3.08"/>
    <rect y="6.16" width="60" height="3.08"/>
    <rect y="12.32" width="60" height="3.08"/>
    <rect y="18.48" width="60" height="3.08"/>
    <rect y="24.64" width="60" height="3.08"/>
    <rect y="30.8" width="60" height="3.08"/>
    <rect y="36.92" width="60" height="3.08"/>
  </g>
  <rect width="24" height="21.56" fill="#3c3b6e"/>
  <g fill="#ffffff">
    <circle cx="4" cy="4" r="1.1"/>
    <circle cx="8" cy="4" r="1.1"/>
    <circle cx="12" cy="4" r="1.1"/>
    <circle cx="16" cy="4" r="1.1"/>
    <circle cx="20" cy="4" r="1.1"/>
    <circle cx="6" cy="7.4" r="1.1"/>
    <circle cx="10" cy="7.4" r="1.1"/>
    <circle cx="14" cy="7.4" r="1.1"/>
    <circle cx="18" cy="7.4" r="1.1"/>
    <circle cx="4" cy="10.8" r="1.1"/>
    <circle cx="8" cy="10.8" r="1.1"/>
    <circle cx="12" cy="10.8" r="1.1"/>
    <circle cx="16" cy="10.8" r="1.1"/>
    <circle cx="20" cy="10.8" r="1.1"/>
    <circle cx="6" cy="14.2" r="1.1"/>
    <circle cx="10" cy="14.2" r="1.1"/>
    <circle cx="14" cy="14.2" r="1.1"/>
    <circle cx="18" cy="14.2" r="1.1"/>
    <circle cx="4" cy="17.6" r="1.1"/>
    <circle cx="8" cy="17.6" r="1.1"/>
    <circle cx="12" cy="17.6" r="1.1"/>
    <circle cx="16" cy="17.6" r="1.1"/>
    <circle cx="20" cy="17.6" r="1.1"/>
  </g>
</svg>
