<svg xmlns="http://www.w3.org/2000/svg" viewBox="0 0 1200 630" role="img" aria-labelledby="title desc">
  <title id="title">Sushi Zen OGP image</title>
  <desc id="desc">Social sharing image for Sushi Zen.</desc>
  <defs>
    <linearGradient id="bg" x1="0" x2="1" y1="0" y2="1">
      <stop offset="0%" stop-color="#100b08"/>
      <stop offset="100%" stop-color="#2a1a12"/>
    </linearGradient>
  </defs>
  <rect width="1200" height="630" fill="url(#bg)"/>
  <circle cx="936" cy="162" r="120" fill="#d8ba7f" fill-opacity=".12"/>
  <ellipse cx="894" cy="348" rx="212" ry="124" fill="#0f0f0f" stroke="#d8ba7f" stroke-width="3"/>
  <ellipse cx="894" cy="348" rx="156" ry="88" fill="#faf5eb"/>
  <g>
    <ellipse cx="810" cy="332" rx="64" ry="24" fill="#ef8d75"/>
    <path d="M746 329c22-33 70-38 126-6c-24 28-69 34-126 6Z" fill="#ffc7b4"/>
    <ellipse cx="896" cy="377" rx="70" ry="26" fill="#f3a96e"/>
    <path d="M827 373c25-34 74-39 140-5c-26 30-74 35-140 5Z" fill="#ffd6a5"/>
    <ellipse cx="982" cy="319" rx="60" ry="22" fill="#99c07e"/>
    <path d="M923 317c20-28 62-31 118-4c-23 24-63 30-118 4Z" fill="#dce9a9"/>
  </g>
  <text x="90" y="250" fill="#d8ba7f" font-size="84" font-family="'Noto Serif JP', serif" letter-spacing="10">SUSHI SHIZEN</text>
  <text x="92" y="316" fill="#ffffff" fill-opacity=".88" font-size="34" font-family="'Noto Sans JP', sans-serif" letter-spacing="5">OMAKASE COUNTER IN OSAKA SHINSAIBASHI</text>
  <text x="92" y="406" fill="#ffffff" fill-opacity=".76" font-size="28" font-family="'Noto Sans JP', sans-serif" letter-spacing="3">Quiet, seasonal, reservation-first dining.</text>
</svg>
