<svg xmlns="http://www.w3.org/2000/svg" viewBox="0 0 1600 900" role="img" aria-labelledby="title">
  <title id="title">Course section texture</title>
  <defs>
    <linearGradient id="bg" x1="0" x2="1" y1="0" y2="1">
      <stop offset="0%" stop-color="#130d08"/>
      <stop offset="100%" stop-color="#24160d"/>
    </linearGradient>
  </defs>
  <rect width="1600" height="900" fill="url(#bg)"/>
  <g fill="none" stroke="#c8a86b" stroke-opacity=".14">
    <path d="M0 720C200 640 370 650 540 718C750 805 915 803 1115 710C1270 637 1430 630 1600 682" stroke-width="2"/>
    <path d="M0 774C210 688 390 690 575 760C770 835 972 835 1176 758C1335 695 1478 688 1600 724" stroke-width="1.6"/>
    <path d="M0 330C140 272 270 270 392 310C592 375 760 386 952 332C1108 288 1260 286 1600 382" stroke-width="1.2"/>
  </g>
  <circle cx="1240" cy="180" r="180" fill="#c8a86b" fill-opacity=".06"/>
  <circle cx="210" cy="200" r="110" fill="#c8a86b" fill-opacity=".05"/>
</svg>
