<svg width="1600" height="980" viewBox="0 0 1600 980" fill="none" xmlns="http://www.w3.org/2000/svg">
  <defs>
    <linearGradient id="goldBase" x1="120" y1="20" x2="1480" y2="260" gradientUnits="userSpaceOnUse">
      <stop offset="0" stop-color="#8B6619"/>
      <stop offset="0.16" stop-color="#C7982A"/>
      <stop offset="0.38" stop-color="#F5D667"/>
      <stop offset="0.58" stop-color="#E3B83B"/>
      <stop offset="0.82" stop-color="#B9871E"/>
      <stop offset="1" stop-color="#7B5810"/>
    </linearGradient>
    <linearGradient id="goldHighlight" x1="240" y1="44" x2="1260" y2="220" gradientUnits="userSpaceOnUse">
      <stop offset="0" stop-color="#FFF1AE" stop-opacity="0.8"/>
      <stop offset="0.48" stop-color="#FFF7C9" stop-opacity="0.32"/>
      <stop offset="1" stop-color="#FFE080" stop-opacity="0"/>
    </linearGradient>
    <filter id="grain" x="-20%" y="-20%" width="140%" height="140%">
      <feTurbulence type="fractalNoise" baseFrequency="0.95" numOctaves="2" stitchTiles="stitch" result="noise"/>
      <feColorMatrix in="noise" type="saturate" values="0"/>
      <feComponentTransfer>
        <feFuncA type="table" tableValues="0 0.08"/>
      </feComponentTransfer>
    </filter>
  </defs>

  <rect width="1600" height="980" fill="#11151A"/>
  <rect width="1600" height="360" fill="url(#goldBase)"/>
  <rect width="1600" height="360" fill="url(#goldHighlight)"/>
  <rect width="1600" height="360" filter="url(#grain)" opacity="0.9"/>

  <path d="M40 786C174 510 344 290 606 170C836 66 1122 54 1482 170L1600 214V0H0V786H40Z" fill="#040506"/>
  <path d="M20 772C156 488 332 260 608 140C856 32 1150 40 1518 184" stroke="#D7A52A" stroke-width="12" stroke-linecap="round"/>
  <path d="M46 790C188 504 368 270 644 150C888 44 1162 62 1530 218" stroke="#F3D46A" stroke-width="6" stroke-linecap="round" opacity="0.85"/>

  <path d="M710 156C960 108 1200 116 1488 202" stroke="#0B0D10" stroke-opacity="0.58" stroke-width="22" stroke-linecap="round"/>
  <path d="M54 780C188 500 354 290 612 168C840 60 1112 54 1464 160" stroke="#0A0C0F" stroke-opacity="0.22" stroke-width="48" stroke-linecap="round"/>

  <rect width="1600" height="980" filter="url(#grain)" opacity="0.6"/>
</svg>
