<svg width="960" height="1200" viewBox="0 0 960 1200" fill="none" xmlns="http://www.w3.org/2000/svg">
  <rect width="960" height="1200" fill="#F7F1E8"/>
  <rect x="72" y="72" width="816" height="1056" rx="8" fill="#FCF8F2" stroke="#BDA383" stroke-width="2"/>
  <circle cx="480" cy="380" r="126" fill="#E7D7C4"/>
  <path d="M365 388C365 323.382 417.382 271 482 271C546.618 271 599 323.382 599 388V410H365V388Z" fill="#3E2C1D"/>
  <path d="M427 370C427 334.654 455.654 306 491 306C526.346 306 555 334.654 555 370V421H427V370Z" fill="#F4E6D4"/>
  <path d="M311 850C311 727.423 410.423 628 533 628C655.577 628 755 727.423 755 850V926H311V850Z" fill="#F4E6D4"/>
  <path d="M229 884C229 761.423 328.423 662 451 662H607C729.577 662 829 761.423 829 884V988H229V884Z" fill="#2F241A"/>
  <path d="M332 763C332 733.177 356.177 709 386 709H678C707.823 709 732 733.177 732 763V1008H332V763Z" fill="#FBF7F0"/>
  <rect x="392" y="787" width="280" height="18" rx="9" fill="#C2A37D"/>
  <rect x="392" y="833" width="280" height="18" rx="9" fill="#C2A37D"/>
  <rect x="392" y="879" width="280" height="18" rx="9" fill="#C2A37D"/>
  <path d="M391 1010H671L643 1072H419L391 1010Z" fill="#E7D7C4"/>
  <rect x="162" y="1060" width="636" height="4" fill="#BDA383"/>
  <rect x="204" y="1088" width="552" height="4" fill="#D8C1A0"/>
</svg>
