<svg xmlns="http://www.w3.org/2000/svg" viewBox="0 0 1600 800" role="img" aria-labelledby="title desc">
  <title id="title">Sushi Zen hero</title>
  <desc id="desc">Decorative hero illustration for Sushi Zen.</desc>
  <defs>
    <linearGradient id="bg" x1="0" x2="1" y1="0" y2="1">
      <stop offset="0%" stop-color="#120c09"/>
      <stop offset="50%" stop-color="#24160f"/>
      <stop offset="100%" stop-color="#3a2618"/>
    </linearGradient>
    <radialGradient id="glow" cx="50%" cy="40%" r="60%">
      <stop offset="0%" stop-color="#d8ba7f" stop-opacity=".78"/>
      <stop offset="100%" stop-color="#d8ba7f" stop-opacity="0"/>
    </radialGradient>
  </defs>
  <rect width="1600" height="800" fill="url(#bg)"/>
  <rect width="1600" height="800" fill="url(#glow)"/>
  <g fill="none" stroke="#c8a86b" stroke-opacity=".36">
    <path d="M0 600C220 500 360 520 540 610C720 700 910 690 1120 560C1310 440 1450 420 1600 470" stroke-width="2"/>
    <path d="M0 650C180 570 340 590 520 670C730 760 940 730 1150 620C1340 520 1460 505 1600 545" stroke-width="1.5"/>
  </g>
  <g transform="translate(970 160)">
    <ellipse cx="0" cy="0" rx="350" ry="210" fill="#101010" fill-opacity=".82" stroke="#d7be8f" stroke-width="3"/>
    <ellipse cx="0" cy="0" rx="260" ry="150" fill="#f6efe4" fill-opacity=".94"/>
    <ellipse cx="0" cy="-18" rx="220" ry="112" fill="#faf7f0"/>
    <g opacity=".94">
      <ellipse cx="-118" cy="-12" rx="82" ry="30" fill="#f59e7b"/>
      <path d="M-194 -14C-160 -58 -104 -66 -44 -28C-77 9 -135 23 -194 -14Z" fill="#ffcfaa"/>
      <ellipse cx="18" cy="-14" rx="74" ry="28" fill="#e37c63"/>
      <path d="M-55 -18C-18 -54 41 -60 92 -18C57 17 0 24 -55 -18Z" fill="#ffb894"/>
      <ellipse cx="148" cy="-16" rx="79" ry="29" fill="#ea6b66"/>
      <path d="M72 -20C105 -55 167 -60 226 -14C190 20 132 22 72 -20Z" fill="#ffbeb0"/>
    </g>
    <g fill="#95a56e">
      <ellipse cx="-35" cy="72" rx="88" ry="24"/>
      <ellipse cx="102" cy="80" rx="70" ry="19"/>
    </g>
  </g>
  <g transform="translate(230 140)" fill="#ffffff" fill-opacity=".08">
    <circle cx="0" cy="0" r="130"/>
    <circle cx="120" cy="270" r="70"/>
    <circle cx="250" cy="110" r="48"/>
  </g>
  <g transform="translate(120 665)">
    <text x="0" y="0" fill="#d8ba7f" font-size="82" font-family="'Noto Serif JP', serif" letter-spacing="16">SUSHI SHIZEN</text>
    <text x="3" y="54" fill="#ffffff" fill-opacity=".75" font-size="28" font-family="'Noto Sans JP', sans-serif" letter-spacing="6">OMAKASE COUNTER IN HIGASHI-SHINSAIBASHI</text>
  </g>
</svg>
