<svg xmlns="http://www.w3.org/2000/svg" viewBox="0 0 1200 700" role="img" aria-labelledby="title">
  <title id="title">Nigiri composition one</title>
  <defs>
    <linearGradient id="bg" x1="0" x2="1" y1="0" y2="1">
      <stop offset="0%" stop-color="#16110d"/>
      <stop offset="100%" stop-color="#302016"/>
    </linearGradient>
  </defs>
  <rect width="1200" height="700" fill="url(#bg)"/>
  <ellipse cx="600" cy="355" rx="320" ry="190" fill="#111" stroke="#d5b67b" stroke-width="3"/>
  <ellipse cx="600" cy="355" rx="240" ry="135" fill="#faf5eb"/>
  <g>
    <ellipse cx="450" cy="320" rx="94" ry="34" fill="#ef9272"/>
    <path d="M360 318c31-47 102-56 183-8c-37 42-106 56-183 8Z" fill="#ffccb0"/>
    <ellipse cx="604" cy="346" rx="88" ry="31" fill="#ea6f65"/>
    <path d="M518 344c32-43 97-50 170-9c-31 41-96 51-170 9Z" fill="#ffb6a5"/>
    <ellipse cx="752" cy="322" rx="92" ry="33" fill="#f2a06e"/>
    <path d="M664 320c35-46 104-52 181-5c-34 40-103 48-181 5Z" fill="#ffd1a5"/>
  </g>
  <text x="88" y="618" fill="#d8ba7f" font-size="54" font-family="'Noto Serif JP', serif" letter-spacing="10">OMAKASE</text>
</svg>
