<svg xmlns="http://www.w3.org/2000/svg" viewBox="0 0 1200 700" role="img" aria-labelledby="title">
  <title id="title">Nigiri composition three</title>
  <defs>
    <linearGradient id="bg" x1="0" x2="1" y1="0" y2="1">
      <stop offset="0%" stop-color="#16120d"/>
      <stop offset="100%" stop-color="#3a2916"/>
    </linearGradient>
  </defs>
  <rect width="1200" height="700" fill="url(#bg)"/>
  <ellipse cx="602" cy="350" rx="302" ry="184" fill="#100e0b" stroke="#d6b778" stroke-width="3"/>
  <ellipse cx="602" cy="350" rx="226" ry="129" fill="#faf4e9"/>
  <g>
    <ellipse cx="508" cy="332" rx="90" ry="32" fill="#e3645e"/>
    <path d="M421 331c31-43 96-51 174-8c-30 38-93 46-174 8Z" fill="#ffb0a6"/>
    <ellipse cx="664" cy="308" rx="74" ry="28" fill="#f0c46e"/>
    <path d="M588 307c31-38 84-45 154-6c-29 34-80 40-154 6Z" fill="#ffe0a8"/>
    <ellipse cx="710" cy="394" rx="82" ry="30" fill="#96b783"/>
    <path d="M631 394c27-38 82-43 160-8c-31 35-86 41-160 8Z" fill="#d6e8ad"/>
  </g>
  <text x="88" y="618" fill="#d8ba7f" font-size="54" font-family="'Noto Serif JP', serif" letter-spacing="10">CRAFT</text>
</svg>
